Error starting ffmpeg -loglevel +timing -y -print_graphs_file "/logs/ffmpeg-directstream-d87676a0-81ca-434c-8748-9f83cca4f33d_1graph.txt" -copyts -start_at_zero -f matroska,webm -c:v:0 h264 -noautorotate -i "/media/dropbox/CASTELLANO/Películas HD/101 dálmatas (1961) [1080p] [x264] [Spa, Eng] [imdb-tt0055254][tmdb-12230] [14,4 Mbps].mkv" -map 0:0 -map 0:1 -sn -c:v:0 copy -c:a:0 copy -metadata:s:a:0 language=spa -disposition:a:0 default -avoid_negative_ts disabled -f mp4 -map_metadata -1 -map_chapters -1 -movflags +empty_moov+frag_keyframe "/transcoding-temp/X20FD15/X20FD15.mp4" 12:44:57.939 ffmpeg version 5.1-emby_2023_06_25 Copyright (c) 2000-2022 the FFmpeg developers and softworkz for Emby LLC 12:44:57.939 built with gcc 10.3.0 (crosstool-NG 1.25.0) 12:44:57.939 Execution Date: 2025-06-25 12:44:57 12:44:59.754 Input #0, matroska,webm, from '/media/dropbox/CASTELLANO/Películas HD/101 dálmatas (1961) [1080p] [x264] [Spa, Eng] [imdb-tt0055254][tmdb-12230] [14,4 Mbps].mkv': 12:44:59.754 Metadata: 12:44:59.754 encoder : libebml v0.7.9 + libmatroska v0.8.1 12:44:59.754 creation_time : 2012-08-13T16:16:47.000000Z 12:44:59.754 Duration: 01:19:16.09, start: 0.000000, bitrate: 14359 kb/s 12:44:59.754 Stream #0:0: Video: h264 (High), yuv420p(progressive), 1440x1080, SAR 1:1 DAR 4:3, Level 41, 23.98 fps, 23.98 tbr, 1k tbn (default) 12:44:59.754 Metadata: 12:44:59.754 title : Vídeo 12:44:59.754 Stream #0:1(spa): Audio: ac3, 48000 Hz, 5.1(side), fltp, 640 kb/s, Start-Time 0.008s (default) 12:44:59.754 Metadata: 12:44:59.754 title : Español latino AC3 5.1 12:44:59.754 Stream #0:2(eng): Audio: dts (DTS), 48000 Hz, 5.1(side), fltp, 1536 kb/s 12:44:59.754 Metadata: 12:44:59.754 title : Inglés DTS 5.1 12:44:59.754 Stream #0:3(spa): Subtitle: dvd_subtitle, 1920x1080 (default) (forced) 12:44:59.754 Metadata: 12:44:59.754 title : Español latino (forzados) 12:44:59.754 Stream #0:4(spa): Subtitle: dvd_subtitle, 1920x1080 12:44:59.754 Metadata: 12:44:59.754 title : Español latino 12:44:59.754 Stream #0:5(eng): Subtitle: dvd_subtitle, 1920x1080 12:44:59.754 Metadata: 12:44:59.754 title : Inglés 12:44:59.754 [mp4 @ 0x10055840] No meaningful edit list will be written when using empty_moov without delay_moov 12:44:59.754 [mp4 @ 0x10055840] track 1: codec frame size is not set 12:44:59.754 [mp4 @ 0x10055840] Cannot write moov atom before AC3 packets. Set the delay_moov flag to fix this. 12:44:59.754 Could not write header for output file #0 (incorrect codec parameters ?): Invalid argument 12:44:59.754 Error initializing output stream 0:1 -- 12:44:59.754 Stream mapping: 12:44:59.754 Stream #0:0 -> #0:0 (copy) 12:44:59.754 Stream #0:1 -> #0:1 (copy) Last message repeated 1 times 12:44:59.754 Execution Date: 2025-06-25 12:44:59 12:44:59.754 EXIT